<svg xmlns="http://www.w3.org/2000/svg" viewBox="0 0 48 48" id="office-structure"><linearGradient id="a" x1="890.953" x2="902.809" y1="-283.498" y2="-297.427" gradientTransform="matrix(3.0757 0 0 -3.0757 -2734.761 -869.632)" gradientUnits="userSpaceOnUse"><stop offset="0" stop-color="#72BF53"></stop><stop offset="1" stop-color="#0290A4"></stop></linearGradient><path fill="url(#a)" d="M10.144 0h27.712C43.458 0 48 4.542 48 10.144v27.712C48 43.458 43.458 48 37.856 48H10.144C4.542 48 0 43.458 0 37.856V10.144C0 4.542 4.542 0 10.144 0z"></path><path fill="#fff" d="M23.996 14.5c-1.379 0-2.5-1.121-2.5-2.5s1.121-2.5 2.5-2.5 2.5 1.121 2.5 2.5-1.121 2.5-2.5 2.5zm0-4c-.827 0-1.5.673-1.5 1.5s.673 1.5 1.5 1.5 1.5-.673 1.5-1.5-.673-1.5-1.5-1.5zM11.504 38.5c-1.379 0-2.5-1.121-2.5-2.5s1.121-2.5 2.5-2.5 2.5 1.121 2.5 2.5-1.121 2.5-2.5 2.5zm0-4c-.827 0-1.5.673-1.5 1.5s.673 1.5 1.5 1.5 1.5-.673 1.5-1.5-.673-1.5-1.5-1.5zM36.496 38.5c-1.379 0-2.5-1.121-2.5-2.5s1.121-2.5 2.5-2.5 2.5 1.121 2.5 2.5-1.121 2.5-2.5 2.5zm0-4c-.827 0-1.5.673-1.5 1.5s.673 1.5 1.5 1.5 1.5-.673 1.5-1.5-.673-1.5-1.5-1.5zM23.504 38.5c-1.379 0-2.5-1.121-2.5-2.5s1.121-2.5 2.5-2.5 2.5 1.121 2.5 2.5-1.121 2.5-2.5 2.5zm0-4c-.827 0-1.5.673-1.5 1.5s.673 1.5 1.5 1.5 1.5-.673 1.5-1.5-.673-1.5-1.5-1.5zM17.504 26.5c-1.379 0-2.5-1.121-2.5-2.5s1.121-2.5 2.5-2.5 2.5 1.121 2.5 2.5-1.121 2.5-2.5 2.5zm0-4c-.827 0-1.5.673-1.5 1.5s.673 1.5 1.5 1.5 1.5-.673 1.5-1.5-.673-1.5-1.5-1.5zM30.504 26.5c-1.379 0-2.5-1.121-2.5-2.5s1.121-2.5 2.5-2.5 2.5 1.121 2.5 2.5-1.121 2.5-2.5 2.5zm0-4c-.827 0-1.5.673-1.5 1.5s.673 1.5 1.5 1.5 1.5-.673 1.5-1.5-.673-1.5-1.5-1.5zM30.504 20.5a.5.5 0 0 1-.5-.5v-1c0-.275-.225-.5-.5-.5h-4.5c-.827 0-1.5-.673-1.5-1.5v-1a.5.5 0 0 1 1 0v1c0 .275.225.5.5.5h4.5c.827 0 1.5.673 1.5 1.5v1a.5.5 0 0 1-.5.5z"></path><path fill="#fff" d="M17.504 20.5a.5.5 0 0 1-.5-.5v-1c0-.827.673-1.5 1.5-1.5h4.5c.275 0 .5-.225.5-.5v-1a.5.5 0 0 1 1 0v1c0 .827-.673 1.5-1.5 1.5h-4.5c-.275 0-.5.225-.5.5v1a.5.5 0 0 1-.5.5zM11.504 32.5a.5.5 0 0 1-.5-.5v-1c0-.827.673-1.5 1.5-1.5h4c.275 0 .5-.225.5-.5v-1a.5.5 0 0 1 1 0v1c0 .827-.673 1.5-1.5 1.5h-4c-.275 0-.5.225-.5.5v1a.5.5 0 0 1-.5.5z"></path><path fill="#fff" d="M23.504 32.5a.5.5 0 0 1-.5-.5v-1c0-.275-.225-.5-.5-.5h-4c-.827 0-1.5-.673-1.5-1.5v-1a.5.5 0 0 1 1 0v1c0 .275.225.5.5.5h4c.827 0 1.5.673 1.5 1.5v1a.5.5 0 0 1-.5.5zM36.504 32.5a.5.5 0 0 1-.5-.5v-1c0-.275-.225-.5-.5-.5h-4c-.827 0-1.5-.673-1.5-1.5v-1a.5.5 0 0 1 1 0v1c0 .275.225.5.5.5h4c.827 0 1.5.673 1.5 1.5v1a.5.5 0 0 1-.5.5z"></path></svg>